<svg cache-id="9de7ed7d922c4cd785b85f3f2b92de20" id="eM0bAzEF8ul1" xmlns="http://www.w3.org/2000/svg" xmlns:xlink="http://www.w3.org/1999/xlink" viewBox="0 0 300 300" shape-rendering="geometricPrecision" text-rendering="geometricPrecision"><defs><linearGradient id="eM0bAzEF8ul6-fill" x1="0.918311" y1="0.213795" x2="-0.029178" y2="0.897772" spreadMethod="pad" gradientUnits="objectBoundingBox" gradientTransform="translate(0 0)"><stop id="eM0bAzEF8ul6-fill-0" offset="0%" stop-color="#c4f1d7"/><stop id="eM0bAzEF8ul6-fill-1" offset="50%" stop-color="#96b8a5"/><stop id="eM0bAzEF8ul6-fill-2" offset="100%" stop-color="#c4f1d7"/></linearGradient><linearGradient id="eM0bAzEF8ul8-fill" x1="0" y1="0.5" x2="1" y2="0.5" spreadMethod="pad" gradientUnits="objectBoundingBox" gradientTransform="translate(0 0)"><stop id="eM0bAzEF8ul8-fill-0" offset="0%" stop-color="#000"/><stop id="eM0bAzEF8ul8-fill-1" offset="100%" stop-color="#fff"/></linearGradient><linearGradient id="eM0bAzEF8ul9-fill" x1="0.918311" y1="0.213795" x2="-0.029178" y2="0.897772" spreadMethod="pad" gradientUnits="objectBoundingBox" gradientTransform="translate(0 0)"><stop id="eM0bAzEF8ul9-fill-0" offset="0%" stop-color="#c4f1d7"/><stop id="eM0bAzEF8ul9-fill-1" offset="50%" stop-color="#96b8a5"/><stop id="eM0bAzEF8ul9-fill-2" offset="100%" stop-color="#c4f1d7"/></linearGradient></defs><g clip-path="url(#eM0bAzEF8ul7)"><g clip-path="url(#eM0bAzEF8ul5)"><path d="M0,0h260.604454c0,0,17.908458,170.322086-19.347829,208.890066C197.744014,253.934638,0,239.050578,0,239.050578L0,0Z" transform="translate(27.931619 29.300362)" fill="#c4f1d7" stroke-width="0"/><clipPath id="eM0bAzEF8ul5"><path d="M-294.207429,-237.499924c85.631041-126.85432,701.641751-322.175571,490.318927,188.93328L111.243113,56.642409C87.326979,81.113216,46.392922,133.189773,24.87895,139.963853c-457.322486,326.184088-475.883953-228.612293-319.086379-377.463777Z" transform="matrix(.567285 0.169195-.160268 0.537352 166.596794 188.931706)" fill="url(#eM0bAzEF8ul6-fill)" stroke-linecap="square"/></clipPath></g><clipPath id="eM0bAzEF8ul7"><path d="M285.631533,29.30036h-257.992069l.000001,239.050579h135.699776c36.350419-24.280607,109.758093-56.041024,117.424459-80.935356c13.960766-45.333597,4.867833-106.781104,4.867833-158.115223" transform="translate(.000001 0.000002)" fill="url(#eM0bAzEF8ul8-fill)" stroke="#3f5787" stroke-width="0.6"/></clipPath></g><path d="M36.469121,9.056948c23.124402.443483,82.856989,2.574825,131.022852-28.619179L105.96348,65.661976c-26.761161,32.421919-42.884387,69.631013-99.765351,87.54106C53.347927,107.121506,44.758934,36.08537,36.469121,9.056948Z" transform="matrix(.567285 0.169195-.160268 0.537352 171.037396 184.978315)" fill="url(#eM0bAzEF8ul9-fill)" stroke-linecap="square"/></svg>
